<svg width="24" height="24" viewBox="0 0 24 24" fill="none" xmlns="http://www.w3.org/2000/svg">
<path d="M13.5006 3V4.5H18.4401L12.6741 10.2668C11.4644 9.32692 9.94205 8.88348 8.41693 9.02673C6.89181 9.16998 5.47863 9.88914 4.46515 11.0378C3.45167 12.1864 2.91411 13.6782 2.96192 15.2093C3.00973 16.7404 3.63933 18.1957 4.7225 19.2788C5.80567 20.362 7.26097 20.9916 8.79206 21.0394C10.3231 21.0872 11.8149 20.5497 12.9635 19.5362C14.1122 18.5227 14.8314 17.1095 14.9746 15.5844C15.1179 14.0593 14.6744 12.5369 13.7346 11.3272L19.5006 5.5605V10.5H21.0006V3H13.5006ZM9.00058 19.5C8.11056 19.5 7.24053 19.2361 6.50051 18.7416C5.76049 18.2471 5.18371 17.5443 4.84312 16.7221C4.50253 15.8998 4.41341 14.995 4.58704 14.1221C4.76068 13.2492 5.18926 12.4474 5.8186 11.818C6.44793 11.1887 7.24976 10.7601 8.12267 10.5865C8.99559 10.4128 9.90039 10.5019 10.7227 10.8425C11.5449 11.1831 12.2477 11.7599 12.7422 12.4999C13.2367 13.24 13.5006 14.11 13.5006 15C13.4992 16.193 13.0246 17.3368 12.181 18.1804C11.3374 19.0241 10.1936 19.4986 9.00058 19.5Z" fill="#798499"/>
</svg>
