<svg width="24" height="24" viewBox="0 0 24 24" fill="none" xmlns="http://www.w3.org/2000/svg">
<path d="M12 19.9C13.6167 19.4 14.9667 18.4127 16.05 16.938C17.1333 15.4633 17.7667 13.8173 17.95 12H12V4.144L6.404 6.221C6.27533 6.27234 6.176 6.34934 6.106 6.452C6.03533 6.55467 6 6.67 6 6.798V11.531C6 11.6603 6.01667 11.8167 6.05 12H12V19.9ZM12 20.842C11.9093 20.842 11.8137 20.8337 11.713 20.817C11.6123 20.8003 11.519 20.7753 11.433 20.742C9.46433 19.992 7.9 18.72 6.74 16.926C5.58 15.132 5 13.19 5 11.1V6.817C5 6.477 5.09833 6.16934 5.295 5.894C5.49167 5.61867 5.74333 5.41867 6.05 5.294L11.435 3.294C11.6297 3.22334 11.818 3.188 12 3.188C12.182 3.188 12.3707 3.22334 12.566 3.294L17.95 5.294C18.2567 5.41867 18.5083 5.61867 18.705 5.894C18.9017 6.16934 19 6.477 19 6.817V11.1C19 13.19 18.42 15.132 17.26 16.926C16.1 18.72 14.5357 19.992 12.567 20.742C12.4803 20.7753 12.387 20.8003 12.287 20.817C12.187 20.8337 12.0913 20.842 12 20.842Z" fill="#798499"/>
</svg>
