<svg width="24" height="24" viewBox="0 0 24 24" fill="none" xmlns="http://www.w3.org/2000/svg">
<path d="M16.2004 15.6C16.0413 15.6 15.8886 15.6632 15.7761 15.7757C15.6636 15.8882 15.6004 16.0409 15.6004 16.2C15.6004 16.3591 15.6636 16.5117 15.7761 16.6243C15.8886 16.7368 16.0413 16.8 16.2004 16.8H18.6004C18.7595 16.8 18.9121 16.7368 19.0247 16.6243C19.1372 16.5117 19.2004 16.3591 19.2004 16.2C19.2004 16.0409 19.1372 15.8882 19.0247 15.7757C18.9121 15.6632 18.7595 15.6 18.6004 15.6H16.2004ZM2.40039 8.09999C2.40039 7.22477 2.74807 6.38541 3.36694 5.76654C3.98581 5.14767 4.82518 4.79999 5.70039 4.79999H18.3004C19.1756 4.79999 20.015 5.14767 20.6338 5.76654C21.2527 6.38541 21.6004 7.22477 21.6004 8.09999V15.9C21.6004 16.7752 21.2527 17.6146 20.6338 18.2334C20.015 18.8523 19.1756 19.2 18.3004 19.2H5.70039C4.82518 19.2 3.98581 18.8523 3.36694 18.2334C2.74807 17.6146 2.40039 16.7752 2.40039 15.9V8.09999ZM5.70039 5.99999C5.14344 5.99999 4.60929 6.22124 4.21547 6.61506C3.82164 7.00889 3.60039 7.54303 3.60039 8.09999V9.59999H20.4004V8.09999C20.4004 7.54303 20.1791 7.00889 19.7853 6.61506C19.3915 6.22124 18.8573 5.99999 18.3004 5.99999H5.70039ZM20.4004 10.8H3.60039V15.9C3.60039 17.0592 4.54119 18 5.70039 18H18.3004C18.8573 18 19.3915 17.7787 19.7853 17.3849C20.1791 16.9911 20.4004 16.4569 20.4004 15.9V10.8Z" fill="#798499"/>
</svg>
