<svg width="120" height="120" viewBox="0 0 120 120" fill="none" xmlns="http://www.w3.org/2000/svg">
<path d="M34.8985 90.3326C32.0844 90.5226 29.6001 89.9788 27.513 88.1521C25.0397 85.9874 24.5091 83.203 25.1506 80.145C25.4368 78.7808 25.959 77.4596 26.4482 76.1465C26.9083 74.9116 26.527 73.9857 25.5931 73.1785C23.4233 71.3029 23.368 71.151 24.3823 68.5523C24.6076 67.9751 24.5767 67.5459 24.1919 67.0808C23.0979 65.7588 22.7803 64.4802 23.8035 62.8286C24.896 61.0653 24.3471 60.1228 22.3457 59.5947C21.1897 59.2897 19.9835 59.2304 18.8448 58.8205C17.4706 58.3257 16.5661 57.4062 15.9942 56.0773C15.6164 55.1995 15.6896 54.4341 16.1628 53.6102C19.2281 48.2746 21.9956 42.7672 25.3423 37.5955C26.0946 36.433 26.1542 35.4063 25.4195 34.2702C24.7918 33.2997 24.1944 32.3095 23.5909 31.3236C23.1727 30.6404 22.8354 29.9202 23.0828 29.0976C24.9834 22.7788 26.2644 16.2735 28.7228 10.1248C29.4198 8.38154 30.4111 6.77628 31.6569 5.37372C32.0323 5.58463 31.9437 5.79017 31.8635 5.97076C29.6168 11.0312 28.6765 16.4596 27.3897 21.7915C26.8965 23.8354 26.368 25.8722 25.7912 27.8939C25.4559 29.0689 25.4332 30.1379 26.1713 31.1862C26.6209 31.8247 26.9019 32.5815 27.3499 33.2212C28.622 35.0377 28.5386 36.7674 27.3497 38.6235C24.2527 43.4584 21.5738 48.5404 18.715 53.5161C18.2704 54.2901 17.4697 55.0861 18.3706 56.0771C19.2589 57.0541 20.3646 57.4155 21.6163 57.0611C23.2514 56.5981 24.8649 56.0695 26.5929 56.4561C27.1945 56.5906 27.7833 56.7821 28.3804 56.9379C28.9259 57.0802 29.4432 57.7983 30.0393 57.0898C30.637 56.3795 31.0961 55.5978 30.8128 54.6037C30.4463 53.3177 29.4612 52.5329 28.102 52.4477C27.8613 52.4326 27.6049 52.5351 27.2402 52.1583C27.9362 51.5412 28.6831 51.3596 29.5412 51.6309C32.2502 52.4873 33.0997 56.2769 31.0009 58.1687C30.103 58.978 29.1142 59.2407 27.9266 58.683C26.2809 57.9101 25.8805 57.9035 24.16 58.206C27.2974 59.845 26.2852 62.2579 25.2911 64.7181C28.213 64.434 30.4637 65.9029 32.8857 66.779C33.8104 67.1135 34.6797 67.5305 35.7507 67.21C36.5017 66.9853 37.382 68.2211 37.5683 69.5722C37.4145 69.7415 37.1911 69.8339 37.0137 69.7218C34.9266 68.4016 32.4738 68.7964 30.2191 68.2677C29.5424 68.109 28.8265 68.1063 28.1267 68.06C26.6713 67.9637 25.827 68.786 25.8417 70.2595C25.849 70.9826 26.257 71.2878 26.9332 71.3327C28.3491 71.4267 29.7378 71.322 31.0837 70.8268C31.4955 70.6753 31.9078 70.4247 32.4328 70.6545C32.4023 71.685 31.2439 71.7122 30.8413 72.5307C31.3442 73.3845 31.8957 74.2904 32.4129 75.2155C32.5871 75.5272 32.8105 75.8958 32.4786 76.24C32.2115 76.5169 31.8666 76.4106 31.5447 76.3308C31.3845 76.2911 31.228 76.2363 31.0683 76.1945C29.184 75.7025 28.9435 75.8189 28.1803 77.6574C27.4622 79.3871 26.8765 81.1446 27.2444 83.0625C27.7592 85.7456 29.8626 87.5263 32.6014 87.7211C34.6751 87.8685 36.6262 87.4026 38.5404 86.7185C47.99 83.3414 57.2851 79.5616 66.6336 75.921C69.2169 74.9149 70.733 72.9927 71.6242 70.4382C73.0397 66.3807 74.1306 62.2305 75.2566 58.0894C75.3617 57.7029 75.3226 57.2551 75.7415 57.0073C76.1577 57.1614 76.1142 57.5273 76.108 57.8371C76.0122 62.6305 75.7406 67.4035 74.5532 72.0807C73.7978 75.0565 71.9058 77.1496 69.4769 78.868C66.1401 81.2289 62.687 83.4191 59.4321 85.9042C57.6821 87.2405 56.9434 88.7695 57.4546 90.9169C57.5969 91.5146 57.6501 92.1443 57.6608 92.7608C57.7192 96.1463 59.2937 98.7921 61.5168 101.221C63.6343 103.534 65.6254 105.97 66.9903 108.843C68.5898 112.209 68.6991 115.772 68.4208 119.389C68.4049 119.596 68.3259 119.791 68.0941 119.884C67.6723 119.78 67.7015 119.408 67.6769 119.099C67.1841 112.913 64.4123 107.785 60.1197 103.485C57.2377 100.598 55.0813 97.4159 54.2947 93.3601C54.0684 92.1931 53.6619 91.0496 53.0783 89.9905C51.7707 87.6175 49.9652 86.8342 47.3014 87.4348C43.1967 88.3602 39.1814 89.6646 34.8985 90.3326Z" fill="white"/>
<path d="M30.8846 35.0667C29.6904 33.9344 28.2671 33.1882 27.4311 31.7794C26.8647 30.8248 26.6885 29.8816 26.9723 28.8259C27.5777 26.5737 28.5213 24.4732 29.7887 22.5178C29.8975 22.3499 30.0309 22.175 30.3688 22.2517C30.5003 22.9544 30.0807 23.5609 29.9145 24.204C29.5737 25.5219 29.1632 26.8198 28.9864 28.1781C28.7728 29.8197 29.5289 30.5718 31.2053 30.3427C33.1668 30.0746 35.1259 29.7858 37.0909 29.5472C41.9383 28.9586 45.8694 30.8913 49.3377 34.0584C49.4852 34.1932 49.5876 34.383 49.6883 34.56C49.7186 34.6134 49.6719 34.7105 49.6258 35.0214C44.7785 32.8227 39.8452 31.4552 34.4548 33.4765C38.3386 34.5066 41.9299 35.8782 44.9782 38.4443C41.6672 38.1853 38.653 36.6954 35.4024 36.2651C35.1417 38.0901 35.2192 38.1724 36.9452 38.1843C38.6929 38.1964 40.4584 37.9966 42.1953 38.623C40.351 39.6777 38.225 39.5621 36.1857 40.0147C36.6251 41.9015 37.6204 43.3901 38.9055 45.0962C37.6978 44.8919 37.2488 44.2746 36.7395 43.7849C35.122 42.2298 33.6718 40.6293 33.3183 38.2157C33.1271 36.9102 31.9448 36.0055 30.8846 35.0667Z" fill="white"/>
<path d="M47.0215 70.3736C47.7407 65.6608 48.3766 61.0437 50.0696 56.6584C50.7499 54.8964 51.8867 53.5423 53.4613 52.5233C57.6195 49.8324 62.0659 47.6203 66.1815 44.8584C67.2156 44.1644 68.2682 43.4978 69.4434 42.7333C69.4905 43.6453 68.9898 43.9438 68.6387 44.3063C65.0314 48.0302 60.9457 51.1795 56.6359 54.0244C54.3983 55.5015 52.9246 57.3959 52.0085 59.9121C50.2139 64.8412 48.7466 69.8621 47.3948 74.9229C47.2812 75.3484 47.2782 75.8254 46.7422 76.1618C46.5414 74.2628 46.8136 72.3742 47.0215 70.3736Z" fill="white"/>
<path d="M23.9004 47.2711C24.6095 44.5058 27.4034 39.9811 28.749 39.4081C29.2109 40.1545 28.5632 40.6555 28.2869 41.1591C27.2005 43.1388 26.0495 45.0838 24.8866 47.0201C24.6969 47.336 24.4927 48.0598 23.9004 47.2711Z" fill="white"/>
<path d="M35.757 57.2337C36.6475 58.5972 37.4861 59.8884 38.3247 61.1795C38.2015 61.2602 38.0782 61.3408 37.955 61.4215C35.969 58.7921 32.9764 56.8786 32.4727 53.1825C33.9027 54.219 34.6106 55.8514 35.757 57.2337Z" fill="white"/>
</svg>
