<svg width="24" height="24" viewBox="0 0 24 24" fill="none" xmlns="http://www.w3.org/2000/svg">
<path d="M5.95 15.4444H4.5225C4.1295 15.4444 3.8125 15.1244 3.8125 14.7274V9.21886C3.8125 8.82136 4.1295 8.50186 4.5225 8.50186H5.951M3.8125 10.8069H2.25V13.3454H3.8125M18.05 8.55536H19.478C19.871 8.55536 20.188 8.87536 20.188 9.27236V14.7809C20.188 15.1784 19.871 15.4979 19.478 15.4979H18.0495M6.6775 7.44336H7.8605C8.252 7.44336 8.5705 7.76136 8.5705 8.15336V15.8394C8.5705 16.2354 8.249 16.5564 7.853 16.5564H6.67C6.4817 16.5564 6.3011 16.4816 6.16795 16.3484C6.0348 16.2153 5.96 16.0347 5.96 15.8464V8.16086C5.96 7.76486 6.282 7.44336 6.6775 7.44336ZM16.147 7.44336H17.33C17.7215 7.44336 18.04 7.76136 18.04 8.15336V15.8394C18.04 16.2354 17.718 16.5564 17.3225 16.5564H16.1395C16.0463 16.5564 15.9539 16.538 15.8678 16.5023C15.7817 16.4666 15.7034 16.4143 15.6375 16.3484C15.5715 16.2825 15.5192 16.2042 15.4835 16.1181C15.4479 16.0319 15.4295 15.9396 15.4295 15.8464V8.16086C15.4295 7.76486 15.751 7.44336 16.147 7.44336Z" stroke="#3A3559" stroke-linecap="round" stroke-linejoin="round"/>
<path d="M20.1878 13.3456H21.7503V10.8071H20.1878M8.57031 10.8071H15.4303M8.57031 13.3456H15.4303" stroke="#3A3559" stroke-linecap="round" stroke-linejoin="round"/>
</svg>
