<svg width="20" height="20" viewBox="0 0 20 20" fill="none" xmlns="http://www.w3.org/2000/svg">
<g clip-path="url(#clip0_4333_2708)">
<path d="M10 4.375C11.2081 4.375 12.1875 3.39562 12.1875 2.1875C12.1875 0.979377 11.2081 0 10 0C8.79188 0 7.8125 0.979377 7.8125 2.1875C7.8125 3.39562 8.79188 4.375 10 4.375Z" fill="#3A3559"/>
<path d="M17.0703 5.0002H2.92969C2.64997 5.0002 2.3817 5.11131 2.18391 5.30911C1.98612 5.5069 1.875 5.77516 1.875 6.05488C1.875 6.3346 1.98612 6.60287 2.18391 6.80066C2.3817 6.99845 2.64997 7.10957 2.92969 7.10957H6.90938C7.1793 7.10957 7.49531 7.23027 7.67422 7.69551C7.8832 8.23574 7.78086 9.2791 7.65195 10.0873L7.4832 11.0424C7.48352 11.0449 7.48326 11.0474 7.48245 11.0498C7.48163 11.0521 7.48029 11.0543 7.47852 11.0561L6.12695 18.7439C6.07794 19.023 6.14145 19.3101 6.30361 19.5425C6.46576 19.7748 6.71334 19.9335 6.99219 19.9838C7.13005 20.0082 7.27138 20.0049 7.40797 19.9742C7.54457 19.9436 7.67371 19.886 7.78789 19.805C7.90208 19.724 7.99904 19.6211 8.07313 19.5024C8.14723 19.3836 8.19699 19.2513 8.21953 19.1131L9.15352 13.7693C9.15352 13.7693 9.45312 12.5002 10 12.5002C10.5559 12.5002 10.8492 13.7693 10.8492 13.7693L11.7832 19.1178C11.8058 19.2572 11.8559 19.3907 11.9306 19.5105C12.0053 19.6303 12.1031 19.7341 12.2184 19.8157C12.3336 19.8974 12.4639 19.9553 12.6017 19.986C12.7395 20.0168 12.8821 20.0198 13.0211 19.9949C13.1601 19.9701 13.2927 19.9178 13.4113 19.8411C13.5299 19.7644 13.632 19.6649 13.7118 19.5483C13.7915 19.4318 13.8472 19.3005 13.8757 19.1622C13.9042 19.0239 13.9049 18.8813 13.8777 18.7428L12.5258 11.0549C12.5261 11.0524 12.5258 11.0499 12.5251 11.0476C12.5243 11.0452 12.5231 11.0431 12.5215 11.0412L12.3523 10.0861C12.2234 9.27793 12.1211 8.23457 12.3301 7.69434C12.5082 7.23027 12.8344 7.1084 13.0832 7.1084H17.0703C17.35 7.1084 17.6183 6.99728 17.8161 6.79949C18.0139 6.6017 18.125 6.33343 18.125 6.05371C18.125 5.77399 18.0139 5.50573 17.8161 5.30793C17.6183 5.11014 17.35 4.99902 17.0703 4.99902V5.0002Z" fill="#3A3559"/>
</g>
<defs>
<clipPath id="clip0_4333_2708">
<rect width="20" height="20" fill="white"/>
</clipPath>
</defs>
</svg>
