<svg width="20" height="20" viewBox="0 0 20 20" fill="none" xmlns="http://www.w3.org/2000/svg">
<g clip-path="url(#clip0_4364_2514)">
<path d="M10.297 12.672L9.10955 13.8595C8.78205 14.1879 8.80205 14.7287 8.92622 15.1762C9.15955 16.0204 8.83872 17.0995 8.21955 17.7187C8.02464 17.9137 7.79325 18.0683 7.53858 18.1739C7.2839 18.2794 7.01093 18.3337 6.73526 18.3338C6.45959 18.3338 6.1866 18.2796 5.9319 18.1741C5.6772 18.0686 5.44576 17.914 5.2508 17.7191C5.05584 17.5242 4.90118 17.2928 4.79565 17.0382C4.69012 16.7835 4.63578 16.5105 4.63574 16.2348C4.63566 15.6781 4.85676 15.1441 5.25038 14.7504C4.85665 15.144 4.32267 15.3651 3.76592 15.365C3.20917 15.3649 2.67526 15.1437 2.28163 14.75C1.88801 14.3562 1.66691 13.8223 1.66699 13.2655C1.66707 12.7088 1.88831 12.1748 2.28205 11.7812C2.90122 11.162 3.98038 10.8412 4.82538 11.0745C5.27205 11.1987 5.81288 11.2187 6.14122 10.8912L10.8912 6.14122C11.2187 5.81288 11.1987 5.27205 11.0745 4.82455C10.8412 3.98038 11.162 2.90122 11.7812 2.28205C12.1748 1.88831 12.7088 1.66707 13.2655 1.66699C13.8223 1.66691 14.3562 1.88801 14.75 2.28163C15.1437 2.67526 15.3649 3.20917 15.365 3.76592C15.3651 4.32267 15.144 4.85665 14.7504 5.25038C15.1441 4.85676 15.6781 4.63566 16.2348 4.63574C16.7916 4.63582 17.3255 4.85706 17.7191 5.2508C18.1128 5.64453 18.3339 6.17851 18.3338 6.73526C18.3337 7.29201 18.1125 7.82592 17.7187 8.21955C17.0995 8.83872 16.0204 9.15955 15.1754 8.92622C14.7287 8.80205 14.1879 8.78205 13.8595 9.10955L12.672 10.297" stroke="#3A3559" stroke-width="1.5" stroke-linecap="round" stroke-linejoin="round"/>
</g>
<defs>
<clipPath id="clip0_4364_2514">
<rect width="20" height="20" fill="white"/>
</clipPath>
</defs>
</svg>
