<svg width="28" height="28" viewBox="0 0 28 28" fill="none" xmlns="http://www.w3.org/2000/svg">
<path d="M15.7909 4.51282C16.198 4.51281 16.5975 4.62292 16.947 4.83146C17.2966 5.04001 17.5832 5.33924 17.7766 5.69743L18.3249 6.71282C18.5182 7.07101 18.8049 7.37024 19.1544 7.57879C19.504 7.78733 19.9035 7.89744 20.3105 7.89743H22.5636C23.162 7.89743 23.7359 8.13516 24.1591 8.55832C24.5822 8.98148 24.82 9.55541 24.82 10.1538V20.3077C24.82 20.9061 24.5822 21.4801 24.1591 21.9032C23.7359 22.3264 23.162 22.5641 22.5636 22.5641H4.51227C3.91383 22.5641 3.33991 22.3264 2.91675 21.9032C2.49359 21.4801 2.25586 20.9061 2.25586 20.3077V10.1538C2.25586 9.55541 2.49359 8.98148 2.91675 8.55832C3.33991 8.13516 3.91383 7.89743 4.51227 7.89743H6.7653C7.17192 7.89746 7.571 7.78759 7.92033 7.57947C8.26966 7.37134 8.55625 7.07268 8.74981 6.71507L9.3015 5.69518C9.49506 5.33757 9.78165 5.03891 10.131 4.83078C10.4803 4.62266 10.8794 4.5128 11.286 4.51282H15.7909Z" stroke="#798499" stroke-width="2.20269" stroke-linecap="round" stroke-linejoin="round"/>
<path d="M13.5379 18.0513C15.4072 18.0513 16.9226 16.536 16.9226 14.6667C16.9226 12.7974 15.4072 11.2821 13.5379 11.2821C11.6687 11.2821 10.1533 12.7974 10.1533 14.6667C10.1533 16.536 11.6687 18.0513 13.5379 18.0513Z" stroke="#798499" stroke-width="2.20269" stroke-linecap="round" stroke-linejoin="round"/>
</svg>
