<svg width="25" height="21" viewBox="0 0 25 21" fill="none" xmlns="http://www.w3.org/2000/svg">
<path d="M14.6366 1.10132C15.0437 1.10131 15.4432 1.21142 15.7927 1.41996C16.1423 1.62851 16.4289 1.92774 16.6223 2.28593L17.1706 3.30132C17.3639 3.65952 17.6506 3.95874 18.0001 4.16729C18.3497 4.37584 18.7492 4.48594 19.1562 4.48593H21.4093C22.0077 4.48593 22.5816 4.72366 23.0048 5.14682C23.4279 5.56998 23.6657 6.14391 23.6657 6.74234V16.8962C23.6657 17.4946 23.4279 18.0686 23.0048 18.4917C22.5816 18.9149 22.0077 19.1526 21.4093 19.1526H3.35797C2.75954 19.1526 2.18561 18.9149 1.76245 18.4917C1.33929 18.0686 1.10156 17.4946 1.10156 16.8962V6.74234C1.10156 6.14391 1.33929 5.56998 1.76245 5.14682C2.18561 4.72366 2.75954 4.48593 3.35797 4.48593H5.611C6.01763 4.48596 6.41671 4.37609 6.76603 4.16797C7.11536 3.95984 7.40196 3.66118 7.59551 3.30358L8.1472 2.28368C8.34076 1.92607 8.62735 1.62741 8.97668 1.41928C9.32601 1.21116 9.72509 1.1013 10.1317 1.10132H14.6366Z" stroke="#798499" stroke-width="2.20269" stroke-linecap="round" stroke-linejoin="round"/>
<path d="M12.3836 14.6398C14.2529 14.6398 15.7683 13.1245 15.7683 11.2552C15.7683 9.38595 14.2529 7.87061 12.3836 7.87061C10.5144 7.87061 8.99902 9.38595 8.99902 11.2552C8.99902 13.1245 10.5144 14.6398 12.3836 14.6398Z" stroke="#798499" stroke-width="2.20269" stroke-linecap="round" stroke-linejoin="round"/>
</svg>
