<svg width="20" height="20" viewBox="0 0 20 20" fill="none" xmlns="http://www.w3.org/2000/svg">
<path d="M9.58301 13.8813L6.73217 16.6897C6.6544 16.768 6.5594 16.8072 6.44717 16.8072C6.33495 16.8072 6.24051 16.7613 6.16384 16.6697C6.07162 16.5919 6.02551 16.4969 6.02551 16.3847C6.02551 16.2725 6.07134 16.1708 6.16301 16.0797L9.58301 12.6597V10.4163H7.33967L3.89801 13.8572C3.82023 13.935 3.72579 13.9738 3.61467 13.9738C3.50356 13.9738 3.40162 13.928 3.30884 13.8363C3.23106 13.7586 3.19217 13.6636 3.19217 13.5513C3.19217 13.4391 3.23106 13.3447 3.30884 13.268L6.11801 10.4163H2.47884C2.37106 10.4163 2.27801 10.3766 2.19967 10.2972C2.1219 10.2177 2.08301 10.1186 2.08301 9.99967C2.08301 9.8919 2.12273 9.79551 2.20217 9.71051C2.28217 9.62551 2.38134 9.58301 2.49967 9.58301H6.11801L3.30967 6.75301C3.23134 6.67523 3.19217 6.58051 3.19217 6.46884C3.19217 6.35717 3.23801 6.25523 3.32967 6.16301C3.40745 6.08523 3.50245 6.04634 3.61467 6.04634C3.7269 6.04634 3.82856 6.08523 3.91967 6.16301L7.33967 9.58301H9.58301V7.33967L6.14217 3.91967C6.0644 3.8419 6.02551 3.74717 6.02551 3.63551C6.02551 3.52384 6.07134 3.4219 6.16301 3.32967C6.24079 3.2519 6.33579 3.21301 6.44801 3.21301C6.56023 3.21301 6.65467 3.2519 6.73134 3.32967L9.58301 6.11801V2.49967C9.58301 2.3919 9.62273 2.29551 9.70217 2.21051C9.78162 2.12551 9.88079 2.08301 9.99967 2.08301C10.1075 2.08301 10.2038 2.12551 10.2888 2.21051C10.3738 2.29551 10.4163 2.3919 10.4163 2.49967V6.11801L13.2463 3.32967C13.3241 3.2519 13.4188 3.21301 13.5305 3.21301C13.6422 3.21301 13.7441 3.2519 13.8363 3.32967C13.9141 3.42134 13.953 3.52301 13.953 3.63467C13.953 3.74634 13.9141 3.84134 13.8363 3.91967L10.4163 7.33967V9.58301H12.6597L16.0797 6.16301C16.1575 6.08523 16.2525 6.04634 16.3647 6.04634C16.4769 6.04634 16.5786 6.09217 16.6697 6.18384C16.7475 6.26162 16.7863 6.35634 16.7863 6.46801C16.7863 6.57967 16.7475 6.67467 16.6697 6.75301L13.8813 9.58301H17.4997C17.6075 9.58301 17.7038 9.62551 17.7888 9.71051C17.8738 9.79551 17.9163 9.8919 17.9163 9.99967C17.9163 10.1186 17.8738 10.2177 17.7888 10.2972C17.7038 10.3766 17.6075 10.4163 17.4997 10.4163H13.8813L16.6697 13.2672C16.7475 13.345 16.7863 13.44 16.7863 13.5522C16.7863 13.6644 16.7475 13.7588 16.6697 13.8355C16.5775 13.9277 16.4755 13.9738 16.3638 13.9738C16.2522 13.9738 16.1577 13.928 16.0805 13.8363L12.6588 10.4163H10.4163V12.6597L13.8363 16.1013C13.9141 16.1791 13.953 16.2736 13.953 16.3847C13.953 16.4958 13.9072 16.5977 13.8155 16.6905C13.7377 16.7683 13.6427 16.8072 13.5305 16.8072C13.4183 16.8072 13.3238 16.7683 13.2472 16.6905L10.4163 13.8813V17.5205C10.4163 17.6283 10.3738 17.7213 10.2888 17.7997C10.2038 17.8775 10.1075 17.9163 9.99967 17.9163C9.88134 17.9163 9.78217 17.8766 9.70217 17.7972C9.62217 17.7177 9.58245 17.6186 9.58301 17.4997V13.8813Z" fill="#3A3559"/>
</svg>
