<svg width="18" height="18" viewBox="0 0 18 18" fill="none" xmlns="http://www.w3.org/2000/svg">
<path d="M12.75 16.5H5.25C4.9425 16.5 4.6875 16.245 4.6875 15.9375C4.6875 15.63 4.9425 15.375 5.25 15.375H12.75C13.0575 15.375 13.3125 15.63 13.3125 15.9375C13.3125 16.245 13.0575 16.5 12.75 16.5Z" fill="#ECBE59"/>
<path d="M15.2622 4.14L12.2622 6.285C11.8647 6.57 11.2947 6.3975 11.1222 5.94L9.70468 2.16C9.46468 1.5075 8.54218 1.5075 8.30218 2.16L6.87718 5.9325C6.70468 6.3975 6.14218 6.57 5.74468 6.2775L2.74468 4.1325C2.14468 3.7125 1.34968 4.305 1.59718 5.0025L4.71718 13.74C4.82218 14.04 5.10718 14.235 5.42218 14.235H12.5697C12.8847 14.235 13.1697 14.0325 13.2747 13.74L16.3947 5.0025C16.6497 4.305 15.8547 3.7125 15.2622 4.14ZM10.8747 11.0625H7.12468C6.81718 11.0625 6.56218 10.8075 6.56218 10.5C6.56218 10.1925 6.81718 9.9375 7.12468 9.9375H10.8747C11.1822 9.9375 11.4372 10.1925 11.4372 10.5C11.4372 10.8075 11.1822 11.0625 10.8747 11.0625Z" fill="#ECBE59"/>
</svg>
