<svg width="20" height="20" viewBox="0 0 20 20" fill="none" xmlns="http://www.w3.org/2000/svg">
<path d="M10.2024 0.56103C10.1754 0.34603 9.82244 0.34603 9.79644 0.56103C8.91344 7.66803 4.39844 9.13303 4.39844 14.073C4.39844 17.126 6.96244 19.6 9.99944 19.6C13.0364 19.6 15.5994 17.125 15.5994 14.073C15.5994 9.13303 11.0854 7.66803 10.2024 0.56103ZM9.34944 8.41803C9.28944 8.6367 9.22644 8.8627 9.16044 9.09603C8.75944 10.52 8.30444 12.135 8.30444 14.002C8.30444 15.014 7.70644 15.373 7.14844 15.373C6.99593 15.3725 6.84503 15.3419 6.70436 15.283C6.5637 15.2241 6.43602 15.138 6.32865 15.0297C6.22128 14.9214 6.13632 14.793 6.07863 14.6519C6.02094 14.5107 5.99165 14.3595 5.99244 14.207C5.99244 12 7.05444 10.558 7.99244 9.28703C8.28744 8.88903 8.56444 8.51203 8.78944 8.13703C8.89244 7.96503 9.16944 7.97303 9.29544 8.14303C9.35444 8.22303 9.37444 8.32503 9.34944 8.41803Z" fill="#3A3559"/>
</svg>
