<svg width="20" height="20" viewBox="0 0 20 20" fill="none" xmlns="http://www.w3.org/2000/svg">
<path fill-rule="evenodd" clip-rule="evenodd" d="M6.4787 4.64449C5.67036 5.45866 5.14786 6.64033 4.93703 8.08283C4.91987 8.20083 4.87759 8.31378 4.81303 8.41405C4.74848 8.51431 4.66316 8.59955 4.56283 8.66401C4.46251 8.72847 4.34951 8.77065 4.23149 8.7877C4.11347 8.80475 3.99316 8.79626 3.8787 8.76283C3.6487 8.69616 3.50453 8.90616 3.43203 9.10116C3.33786 9.35449 3.30953 9.72199 3.4187 10.1303C3.5137 10.4845 3.84953 11.222 4.32703 11.1778C4.51326 11.1605 4.69991 11.2063 4.85696 11.3078C5.01401 11.4094 5.13232 11.5609 5.19286 11.7378C6.03953 14.2145 8.16536 15.8337 9.99953 15.8337C11.8337 15.8337 13.9595 14.2145 14.8062 11.7378C14.8667 11.5603 14.9853 11.4083 15.1429 11.3065C15.3005 11.2047 15.4878 11.1591 15.6745 11.177C16.152 11.2228 16.4887 10.4845 16.5837 10.1303C16.6929 9.72199 16.6645 9.35449 16.5704 9.10116C16.497 8.90532 16.3529 8.69533 16.122 8.76283C16.0075 8.79654 15.8871 8.80527 15.7689 8.7884C15.6508 8.77154 15.5376 8.72949 15.4371 8.66509C15.3366 8.60069 15.2511 8.51545 15.1864 8.41514C15.1217 8.31482 15.0793 8.20178 15.062 8.08366C14.8512 6.64116 14.3287 5.45866 13.5204 4.64533C12.7262 3.84533 11.5912 3.33366 9.99953 3.33366C8.40786 3.33366 7.27286 3.84616 6.4787 4.64449ZM5.2962 3.46949C6.43786 2.32116 8.01786 1.66699 9.99953 1.66699C11.9812 1.66699 13.5604 2.32116 14.7029 3.47033C15.6662 4.43949 16.2695 5.71199 16.5779 7.11449C16.624 7.12283 16.6695 7.13338 16.7145 7.14616C17.4387 7.33949 17.9054 7.90949 18.1329 8.52116C18.3604 9.13449 18.382 9.85866 18.1937 10.562C17.9295 11.5478 17.2229 12.5203 16.192 12.7828C15.0654 15.492 12.5712 17.5003 9.99953 17.5003C7.42786 17.5003 4.93286 15.4903 3.80703 12.782C2.77786 12.5178 2.07286 11.5462 1.8087 10.562C1.62036 9.85866 1.64203 9.13449 1.86953 8.52033C2.09703 7.90949 2.5637 7.33949 3.28786 7.14533C3.33231 7.13366 3.37675 7.12366 3.4212 7.11533C3.72953 5.71199 4.33286 4.43949 5.2962 3.46949Z" fill="#3A3559"/>
</svg>
