<svg width="24" height="24" viewBox="0 0 24 24" fill="none" xmlns="http://www.w3.org/2000/svg">
<path d="M15 0.75C15 2.14844 15.2578 3.4375 15.7734 4.61719C16.2891 5.79688 17.0312 6.88281 18 7.875C18.9688 8.86719 19.7109 9.95312 20.2266 11.1328C20.7422 12.3125 21 13.6016 21 15C21 15.8281 20.8945 16.625 20.6836 17.3906C20.4727 18.1562 20.168 18.8711 19.7695 19.5352C19.3711 20.1992 18.9023 20.8086 18.3633 21.3633C17.8242 21.918 17.2188 22.3867 16.5469 22.7695C15.875 23.1523 15.1562 23.4531 14.3906 23.6719C13.625 23.8906 12.8281 24 12 24C11.1719 24 10.375 23.8945 9.60938 23.6836C8.84375 23.4727 8.12891 23.168 7.46484 22.7695C6.80078 22.3711 6.19141 21.9023 5.63672 21.3633C5.08203 20.8242 4.61328 20.2188 4.23047 19.5469C3.84766 18.875 3.54688 18.1562 3.32812 17.3906C3.10938 16.625 3 15.8281 3 15C3 14.3438 3.07031 13.6992 3.21094 13.0664C3.35156 12.4336 3.55469 11.8281 3.82031 11.25C4.08594 10.6719 4.41406 10.1211 4.80469 9.59766C5.19531 9.07422 5.63672 8.60156 6.12891 8.17969C6.18359 8.47656 6.25781 8.78125 6.35156 9.09375C6.44531 9.40625 6.55469 9.71875 6.67969 10.0312C6.80469 10.3438 6.95312 10.6406 7.125 10.9219C7.29688 11.2031 7.47656 11.4648 7.66406 11.707C7.82031 11.9023 8.02344 12 8.27344 12C8.48438 12 8.66016 11.9258 8.80078 11.7773C8.94141 11.6289 9.01562 11.4492 9.02344 11.2383C9.02344 11.1523 9.01172 11.0742 8.98828 11.0039C8.96484 10.9336 8.92578 10.8633 8.87109 10.793C8.65234 10.4727 8.46094 10.1562 8.29688 9.84375C8.13281 9.53125 7.98828 9.21094 7.86328 8.88281C7.73828 8.55469 7.64844 8.21484 7.59375 7.86328C7.53906 7.51172 7.50781 7.14062 7.5 6.75C7.5 5.82031 7.67578 4.94531 8.02734 4.125C8.37891 3.30469 8.86328 2.58984 9.48047 1.98047C10.0977 1.37109 10.8125 0.890625 11.625 0.539062C12.4375 0.1875 13.3125 0.0078125 14.25 0H15V0.75ZM12 22.5C13.0391 22.5 14.0117 22.3047 14.918 21.9141C15.8242 21.5234 16.6211 20.9883 17.3086 20.3086C17.9961 19.6289 18.5312 18.8359 18.9141 17.9297C19.2969 17.0234 19.4922 16.0469 19.5 15C19.5 13.8203 19.2812 12.7227 18.8438 11.707C18.4062 10.6914 17.7734 9.76953 16.9453 8.94141C15.9297 7.91797 15.1328 6.78906 14.5547 5.55469C13.9766 4.32031 13.6328 2.98438 13.5234 1.54688C12.875 1.63281 12.2773 1.82812 11.7305 2.13281C11.1836 2.4375 10.7031 2.82422 10.2891 3.29297C9.875 3.76172 9.55859 4.28906 9.33984 4.875C9.12109 5.46094 9.00781 6.08594 9 6.75C9 7.35938 9.08984 7.91016 9.26953 8.40234C9.44922 8.89453 9.71484 9.38672 10.0664 9.87891C10.2148 10.082 10.3281 10.293 10.4062 10.5117C10.4844 10.7305 10.5273 10.9727 10.5352 11.2383C10.5352 11.5508 10.4766 11.8438 10.3594 12.1172C10.2422 12.3906 10.0781 12.6289 9.86719 12.832C9.65625 13.0352 9.41797 13.1992 9.15234 13.3242C8.88672 13.4492 8.59375 13.5078 8.27344 13.5C7.91406 13.5 7.59766 13.4336 7.32422 13.3008C7.05078 13.168 6.80859 12.9883 6.59766 12.7617C6.38672 12.5352 6.19922 12.2812 6.03516 12C5.87109 11.7188 5.71484 11.4375 5.56641 11.1562C5.20703 11.7266 4.94141 12.3398 4.76953 12.9961C4.59766 13.6523 4.50781 14.3203 4.5 15C4.5 16.0391 4.69531 17.0117 5.08594 17.918C5.47656 18.8242 6.01172 19.6211 6.69141 20.3086C7.37109 20.9961 8.16406 21.5312 9.07031 21.9141C9.97656 22.2969 10.9531 22.4922 12 22.5Z" fill="#3A3559"/>
</svg>
