<svg width="21" height="21" viewBox="0 0 21 21" fill="none" xmlns="http://www.w3.org/2000/svg">
<path d="M10.9004 11.517C11.3562 10.4604 12.1626 9.59337 13.1833 9.06218C14.2041 8.53099 15.3769 8.36815 16.5038 8.60115C17.6307 8.83414 18.6427 9.4487 19.3692 10.3411C20.0956 11.2336 20.492 12.3493 20.4914 13.5C20.4914 17.366 16.4914 20.5 11.4914 20.5C7.41442 20.5 3.33842 19.68 1.12042 18.038C0.69442 17.722 0.48942 17.206 0.50042 16.676C0.60942 11.223 1.11842 0.5 8.49142 0.5C9.28707 0.5 10.0501 0.816071 10.6127 1.37868C11.1753 1.94129 11.4914 2.70435 11.4914 3.5C11.4914 4.03043 11.2807 4.53914 10.9056 4.91421C10.5306 5.28929 10.0219 5.5 9.49142 5.5C8.38642 5.5 7.85142 5.056 7.49142 4.5" stroke="#3A3559" stroke-linecap="round" stroke-linejoin="round"/>
<path d="M13.4912 12.4998C12.8877 12.0469 12.1895 11.7365 11.449 11.5918C10.7085 11.4471 9.94477 11.4719 9.21518 11.6643C8.48558 11.8567 7.80899 12.2118 7.23611 12.7028C6.66323 13.1939 6.20892 13.8082 5.90723 14.4998" stroke="#3A3559" stroke-linecap="round" stroke-linejoin="round"/>
<path d="M8.45521 5.3252C6.51021 6.4772 7.99121 11.5002 6.49121 13.5002" stroke="#3A3559" stroke-linecap="round" stroke-linejoin="round"/>
</svg>
