<svg width="20" height="20" viewBox="0 0 20 20" fill="none" xmlns="http://www.w3.org/2000/svg">
<path fill-rule="evenodd" clip-rule="evenodd" d="M14.2845 1.97833C13.5145 1.875 12.5345 1.875 11.3112 1.875H8.54366C7.32116 1.875 6.34033 1.875 5.57033 1.97833C4.77283 2.085 4.10783 2.3125 3.58033 2.83833C3.03033 3.38667 2.80449 4.08417 2.70283 4.925L2.69783 4.96667L2.70033 5.12917C2.5231 5.24472 2.35671 5.37972 2.20116 5.53417C1.57783 6.15833 1.30116 6.94917 1.16949 7.92583C1.04199 8.87583 1.04199 10.0883 1.04199 11.62V12.0742C1.04283 13.4283 1.05283 14.5383 1.16949 15.4075C1.30116 16.3842 1.57783 17.175 2.20116 17.7992C2.82533 18.4225 3.61616 18.6992 4.59283 18.8308C5.54283 18.9583 6.75533 18.9583 8.28699 18.9583H11.7137C13.2453 18.9583 14.4587 18.9583 15.4078 18.8308C16.3845 18.6992 17.1753 18.4225 17.7995 17.7992C18.4228 17.175 18.6995 16.3842 18.8312 15.4075C18.9587 14.4575 18.9587 13.245 18.9587 11.7133V11.62C18.9587 10.0883 18.9587 8.875 18.8312 7.92583C18.6995 6.94917 18.4228 6.15833 17.7995 5.53417C17.6077 5.34183 17.3914 5.17567 17.1562 5.04V4.9625L17.152 4.925C17.0503 4.08417 16.8253 3.38667 16.2745 2.83833C15.747 2.31333 15.0828 2.085 14.2845 1.97833ZM2.29283 12.3667C2.29533 13.5958 2.31116 14.5167 2.40866 15.2417C2.52116 16.0792 2.73283 16.5625 3.08533 16.915C3.43783 17.2675 3.92116 17.4792 4.75949 17.5917C5.61616 17.7067 6.74449 17.7083 8.33366 17.7083H11.667C13.2562 17.7083 14.3853 17.7067 15.242 17.5917C15.8778 17.5067 16.3095 17.3642 16.6353 17.1458L14.3962 15.13C14.0806 14.8459 13.6779 14.6773 13.254 14.6519C12.8301 14.6265 12.4101 14.7457 12.0628 14.99L11.8153 15.165C11.3739 15.4752 10.8372 15.6197 10.2997 15.573C9.7622 15.5264 9.2584 15.2916 8.87699 14.91L5.30199 11.335C5.07021 11.1033 4.759 10.9683 4.43143 10.9575C4.10385 10.9466 3.78441 11.0608 3.53783 11.2767L2.29283 12.3667ZM15.232 14.2008L17.3887 16.1425C17.477 15.8958 17.5437 15.6008 17.592 15.2408C17.707 14.385 17.7087 13.2558 17.7087 11.6667C17.7087 10.0775 17.707 8.94917 17.592 8.09167C17.4795 7.25417 17.2678 6.77083 16.9153 6.41833C16.5628 6.06583 16.0795 5.85417 15.2412 5.74167C14.3853 5.62667 13.2562 5.625 11.667 5.625H8.33366C6.74449 5.625 5.61616 5.62667 4.75866 5.74167C3.92116 5.85417 3.43783 6.06583 3.08533 6.41833C2.73283 6.77083 2.52116 7.25417 2.40866 8.09167C2.31783 8.76417 2.29783 9.605 2.29366 10.7042L2.71533 10.335C3.20063 9.91044 3.82916 9.68621 4.47361 9.70772C5.11806 9.72922 5.73024 9.99486 6.18616 10.4508L9.76116 14.0258C9.9346 14.199 10.1635 14.3054 10.4077 14.3265C10.6519 14.3475 10.8957 14.2818 11.0962 14.1408L11.3445 13.9658C11.9233 13.5591 12.623 13.3607 13.3292 13.4033C14.0353 13.4458 14.7062 13.7275 15.232 14.2008ZM4.46199 3.725C4.26199 3.92417 4.11866 4.18417 4.02366 4.6025C4.20588 4.5625 4.3956 4.52944 4.59283 4.50333C5.54283 4.37583 6.75533 4.37583 8.28699 4.37583H11.7137C13.2453 4.37583 14.4587 4.37583 15.4078 4.50333C15.55 4.52222 15.6889 4.54472 15.8245 4.57083C15.7287 4.17083 15.587 3.91917 15.3928 3.725C15.1362 3.46917 14.7787 3.30667 14.1187 3.21833C13.4412 3.12667 12.5445 3.12583 11.2653 3.12583H8.58949C7.31033 3.12583 6.41366 3.1275 5.73616 3.2175C5.07616 3.30667 4.71866 3.46917 4.46199 3.725Z" fill="#3A3559"/>
<path fill-rule="evenodd" clip-rule="evenodd" d="M14.584 6.875C14.3378 6.875 14.0939 6.9235 13.8665 7.01773C13.639 7.11195 13.4323 7.25007 13.2582 7.42417C13.084 7.59828 12.9459 7.80498 12.8517 8.03247C12.7575 8.25995 12.709 8.50377 12.709 8.75C12.709 8.99623 12.7575 9.24005 12.8517 9.46753C12.9459 9.69502 13.084 9.90172 13.2582 10.0758C13.4323 10.2499 13.639 10.388 13.8665 10.4823C14.0939 10.5765 14.3378 10.625 14.584 10.625C15.0813 10.625 15.5582 10.4275 15.9098 10.0758C16.2614 9.72419 16.459 9.24728 16.459 8.75C16.459 8.25272 16.2614 7.77581 15.9098 7.42417C15.5582 7.07254 15.0813 6.875 14.584 6.875ZM14.584 8.125C14.4182 8.125 14.2593 8.19085 14.142 8.30806C14.0248 8.42527 13.959 8.58424 13.959 8.75C13.959 8.91576 14.0248 9.07473 14.142 9.19194C14.2593 9.30915 14.4182 9.375 14.584 9.375C14.7497 9.375 14.9087 9.30915 15.0259 9.19194C15.1431 9.07473 15.209 8.91576 15.209 8.75C15.209 8.58424 15.1431 8.42527 15.0259 8.30806C14.9087 8.19085 14.7497 8.125 14.584 8.125Z" fill="#3A3559"/>
</svg>
