<svg width="20" height="20" viewBox="0 0 20 20" fill="none" xmlns="http://www.w3.org/2000/svg">
<path d="M8.30344 6.19449L6.35427 1.81699M6.9001 7.21408L3.33927 4.00741M6.0326 8.71616L1.47552 7.23533M5.85135 10.4412L1.08594 10.942M6.3876 12.0907L2.2376 14.4866M7.54802 13.3799L4.73177 17.2566M9.13302 14.0853L8.13636 18.7724M10.8672 14.0853L11.8639 18.7724M12.4522 13.3799L15.2684 17.2566M13.6126 12.0907L17.7626 14.4866M14.1489 10.4412L18.9143 10.942M13.9676 8.71616L18.5247 7.23533M13.1001 7.21408L16.6609 4.00741M11.6968 6.19449L13.6459 1.81699M10.0001 5.83366V1.04199" stroke="#3A3559" stroke-linecap="round" stroke-linejoin="round"/>
<path d="M10.0003 18.9587C14.9479 18.9587 18.9587 14.9479 18.9587 10.0003C18.9587 5.05277 14.9479 1.04199 10.0003 1.04199C5.05277 1.04199 1.04199 5.05277 1.04199 10.0003C1.04199 14.9479 5.05277 18.9587 10.0003 18.9587Z" stroke="#3A3559" stroke-linecap="round" stroke-linejoin="round"/>
<path d="M9.99967 14.1663C12.3009 14.1663 14.1663 12.3009 14.1663 9.99967C14.1663 7.69849 12.3009 5.83301 9.99967 5.83301C7.69849 5.83301 5.83301 7.69849 5.83301 9.99967C5.83301 12.3009 7.69849 14.1663 9.99967 14.1663Z" stroke="#3A3559" stroke-linecap="round" stroke-linejoin="round"/>
</svg>
