<svg width="20" height="20" viewBox="0 0 20 20" fill="none" xmlns="http://www.w3.org/2000/svg">
<path d="M5.83301 4.16664C5.83301 4.28331 5.92467 4.37498 6.04134 4.37498H9.99965C10.3413 4.37498 10.6246 4.65831 10.6246 4.99997C10.6246 5.34164 10.3413 5.62497 9.99965 5.62497H6.04134C5.92467 5.62497 5.83301 5.71663 5.83301 5.8333V7.49996C5.83301 7.61662 5.92467 7.70829 6.04134 7.70829H7.99966C8.34133 7.70829 8.62466 7.99162 8.62466 8.33329C8.62466 8.67495 8.34133 8.95828 7.99966 8.95828H6.04134C5.92467 8.95828 5.83301 9.04995 5.83301 9.16662V10.7999C5.83301 10.9166 5.92467 11.0083 6.04134 11.0083L10.008 11.0416C10.3496 11.0416 10.6246 11.3249 10.6246 11.6666C10.6246 11.6666 10.6246 11.6666 10.6246 11.6749C10.6246 12.0166 10.3413 12.2916 9.99132 12.2916L6.04134 12.2583C5.92467 12.2583 5.83301 12.3499 5.83301 12.4666V14.1666C5.83301 14.2833 5.92467 14.3749 6.04134 14.3749H8.99966C9.34132 14.3749 9.62465 14.6583 9.62465 14.9999C9.62465 15.3416 9.34132 15.6249 8.99966 15.6249H6.04134C5.92467 15.6249 5.83301 15.7166 5.83301 15.8332C5.83301 17.2166 6.94967 18.3332 8.33299 18.3332H11.6663C13.0496 18.3332 14.1663 17.2166 14.1663 15.8332V4.16664C14.1663 2.78332 13.0496 1.66666 11.6663 1.66666H8.33299C6.94967 1.66666 5.83301 2.78332 5.83301 4.16664Z" fill="#8553F0"/>
</svg>
