<svg width="16" height="16" viewBox="0 0 16 16" fill="none" xmlns="http://www.w3.org/2000/svg">
<g clip-path="url(#clip0_4280_2598)">
<path d="M2.42127 0.576754L1.86734 0.674473L2.15871 2.32716C1.994 2.35281 1.82941 2.37927 1.66496 2.40654L1.46174 1.25372L0.907805 1.35135L1.11062 2.50119C0.931342 2.53277 0.752215 2.56519 0.573242 2.59844L0.676117 3.15144C0.855117 3.11813 1.03227 3.08613 1.20824 3.05507L1.42874 4.30569L1.98271 4.20807L1.76271 2.96025C1.92846 2.93277 2.09302 2.90632 2.2564 2.88088L2.56193 4.61369L3.1159 4.516L2.81287 2.79757C3.07484 2.76001 3.33714 2.7248 3.59974 2.69194C4.08537 4.14163 4.68402 5.81679 5.69149 6.89344C5.96402 7.84347 5.99965 8.37497 6.70465 9.68747C5.99965 10.875 5.49965 12.875 5.22496 14.7187L3.72496 14.9062V15.375H5.99965C6.49965 13.875 7.99965 10.875 7.99965 10.875C7.99965 10.875 9.49965 13.875 9.99965 15.375H12.2743V14.9062L10.7743 14.7187C10.4996 12.875 9.99965 10.875 9.18715 9.68747C9.99965 8.37497 9.94262 7.82544 10.3068 6.89444C11.3146 5.81782 11.9137 4.1421 12.3996 2.692C12.6594 2.7245 12.9213 2.7595 13.1864 2.79763L12.8834 4.51607L13.4374 4.61369L13.743 2.88088C13.9064 2.90632 14.0709 2.93277 14.2367 2.96025L14.0166 4.20807L14.5706 4.30572L14.7911 3.0551C14.9671 3.08613 15.1442 3.11813 15.3232 3.15144L15.4261 2.59844C15.2455 2.56485 15.0665 2.5325 14.8888 2.50116L15.0916 1.35129L14.5376 1.25363L14.3344 2.40644C14.1699 2.37914 14.0053 2.35268 13.8406 2.32707L14.132 0.674379L13.5781 0.57666L13.2841 2.24385C11.4366 1.97841 9.71784 1.84497 7.99965 1.84497C6.28152 1.84497 4.56268 1.97841 2.71521 2.24394L2.42127 0.576754ZM7.99965 2.4056C9.10996 2.4056 10.2206 2.46279 11.3691 2.57632C10.929 3.66563 10.1674 4.87332 9.39399 5.76279C9.0713 6.22716 8.57309 6.53122 7.99965 6.53122C7.42621 6.53122 6.92796 6.22716 6.60527 5.76279C5.8319 4.87332 5.07027 3.6656 4.63021 2.57632C5.77865 2.46279 6.88927 2.4056 7.99965 2.4056ZM7.99965 3.03122C7.34855 3.03122 6.7809 3.66372 6.7809 4.49997C6.7809 5.33622 7.34855 5.96872 7.99965 5.96872C8.65074 5.96872 9.2184 5.33622 9.2184 4.49997C9.2184 3.66372 8.65074 3.03122 7.99965 3.03122Z" fill="#798499"/>
</g>
<defs>
<clipPath id="clip0_4280_2598">
<rect width="16" height="16" fill="white"/>
</clipPath>
</defs>
</svg>
