<svg width="24" height="24" viewBox="0 0 24 24" fill="none" xmlns="http://www.w3.org/2000/svg">
<path d="M8.242 13.423C6.78067 13.423 5.54167 12.9127 4.525 11.892C3.50833 10.8713 3 9.63167 3 8.173C3 6.83967 3.44433 5.67967 4.333 4.693C5.22167 3.70633 6.328 3.142 7.652 3H7.764C7.55067 3.35267 7.38567 3.72667 7.269 4.122C7.15233 4.51733 7.094 4.92533 7.094 5.346C7.094 6.65467 7.554 7.76733 8.474 8.684C9.394 9.60067 10.511 10.0587 11.825 10.058C12.0697 10.058 12.3087 10.0377 12.542 9.997C12.7753 9.957 12.9987 9.89667 13.212 9.816C12.8633 10.8973 12.2363 11.769 11.331 12.431C10.4257 13.093 9.396 13.4237 8.242 13.423ZM8.236 12.423C8.84133 12.423 9.41367 12.2983 9.953 12.049C10.4923 11.7997 10.9607 11.4493 11.358 10.998C9.86933 10.8913 8.62167 10.3007 7.615 9.226C6.60833 8.15133 6.10167 6.86567 6.095 5.369C6.095 5.22833 6.10433 5.09067 6.123 4.956C6.14233 4.82133 6.16467 4.68333 6.19 4.542C5.51333 4.91267 4.976 5.42167 4.578 6.069C4.18 6.71633 3.981 7.424 3.981 8.192C3.981 9.36933 4.395 10.369 5.223 11.191C6.051 12.0123 7.05533 12.423 8.236 12.423ZM17.25 11.462H20.039V7.73H17.25V11.462ZM18.654 15.25C19.046 15.25 19.3747 15.1167 19.64 14.85C19.9053 14.582 20.038 14.2507 20.038 13.856V12.462H17.25V13.866C17.25 14.258 17.3847 14.5867 17.654 14.852C17.9227 15.1173 18.256 15.25 18.654 15.25ZM6.158 20H10.246C10.5693 20 10.8577 19.9013 11.111 19.704C11.365 19.5067 11.53 19.2527 11.606 18.942L12.046 17.231H4.358L4.798 18.942C4.874 19.2527 5.03867 19.5067 5.292 19.704C5.546 19.9013 5.83467 20 6.158 20ZM2 21V20H4.25C4.14333 19.886 4.054 19.76 3.982 19.622C3.91 19.484 3.859 19.3387 3.829 19.186L3.077 16.231H13.327L12.575 19.187C12.5457 19.3397 12.4947 19.4847 12.422 19.622C12.35 19.76 12.2607 19.886 12.154 20H18.154V16.19C17.6053 16.0767 17.1507 15.8 16.79 15.36C16.43 14.92 16.25 14.422 16.25 13.866V6.73H21.039V13.865C21.039 14.421 20.862 14.919 20.508 15.359C20.154 15.799 19.7027 16.0757 19.154 16.189V20H22V21H2Z" fill="#3A3559"/>
</svg>
