<svg width="20" height="20" viewBox="0 0 20 20" fill="none" xmlns="http://www.w3.org/2000/svg">
<path d="M2.595 6.25C2.715 5.03083 2.98667 4.21083 3.59833 3.59833C4.69667 2.5 6.465 2.5 10 2.5C13.535 2.5 15.3033 2.5 16.4017 3.59833C17.0142 4.21083 17.285 5.03167 17.405 6.25M17.405 13.75C17.285 14.9692 17.0133 15.7892 16.4017 16.4017C15.3033 17.5 13.535 17.5 10 17.5C6.465 17.5 4.69667 17.5 3.59833 16.4017C2.98583 15.7892 2.715 14.9683 2.595 13.75M2.5 10H2.91667M9.79167 10H10.2083M6.04167 10H6.45833M13.5417 10H13.9583M17.0833 10H17.5" stroke="#3A3559" stroke-width="1.5" stroke-linecap="round" stroke-linejoin="round"/>
</svg>
