<svg width="20" height="20" viewBox="0 0 20 20" fill="none" xmlns="http://www.w3.org/2000/svg">
<path d="M7.91667 3.33333C7.91667 3.11232 7.82887 2.90036 7.67259 2.74408C7.51631 2.5878 7.30435 2.5 7.08333 2.5C6.86232 2.5 6.65036 2.5878 6.49408 2.74408C6.3378 2.90036 6.25 3.11232 6.25 3.33333C6.25 4.85583 5.87 6.39583 5.08833 7.96083C4.71167 8.7125 4.18167 9.29417 3.59667 10.1017C3.055 10.8483 2.5 11.76 2.5 12.9167C2.5 13.6902 2.80729 14.4321 3.35427 14.9791C3.90125 15.526 4.64312 15.8333 5.41667 15.8333C5.89333 15.8333 6.67667 15.52 7.1275 15.745C7.45917 15.9117 7.67417 16.295 7.925 16.5617C8.35833 17.02 8.97833 17.5 10 17.5C11.0217 17.5 11.6417 17.02 12.075 16.5617C12.3208 16.3008 12.5433 15.91 12.8725 15.745C13.3225 15.52 14.1058 15.8333 14.5833 15.8333C15.3569 15.8333 16.0987 15.526 16.6457 14.9791C17.1927 14.4321 17.5 13.6902 17.5 12.9167C17.5 11.7608 16.9458 10.8483 16.4033 10.1017C15.8183 9.295 15.2883 8.7125 14.9117 7.96C14.13 6.39667 13.75 4.85667 13.75 3.33333C13.75 3.11232 13.6622 2.90036 13.5059 2.74408C13.3496 2.5878 13.1377 2.5 12.9167 2.5C12.6957 2.5 12.4837 2.5878 12.3274 2.74408C12.1711 2.90036 12.0833 3.11232 12.0833 3.33333C12.0833 5.14417 12.5367 6.9375 13.4217 8.70583C13.8783 9.62083 14.5983 10.4517 15.055 11.0808C15.555 11.7683 15.8333 12.3142 15.8333 12.9167C15.8333 13.2482 15.7016 13.5661 15.4672 13.8005C15.2328 14.035 14.9149 14.1667 14.5833 14.1667C13.7367 14.1667 12.9442 13.8458 12.1275 14.255C11.5925 14.5217 11.2608 14.995 10.8625 15.4175C10.6075 15.6883 10.3958 15.8333 10 15.8333C9.60417 15.8333 9.39167 15.6883 9.1375 15.4183C8.74167 14.9975 8.40417 14.52 7.8725 14.255C7.05583 13.8467 6.26417 14.1667 5.41667 14.1667C5.25251 14.1667 5.08997 14.1343 4.93831 14.0715C4.78666 14.0087 4.64886 13.9166 4.53278 13.8005C4.41671 13.6845 4.32464 13.5467 4.26182 13.395C4.199 13.2434 4.16667 13.0808 4.16667 12.9167C4.16667 12.315 4.44583 11.7683 4.945 11.08C5.40167 10.4508 6.12167 9.62083 6.57833 8.70583C7.46333 6.9375 7.91667 5.14417 7.91667 3.33333Z" fill="#3A3559"/>
</svg>
