<svg width="64" height="64" viewBox="0 0 64 64" fill="none" xmlns="http://www.w3.org/2000/svg">
<path d="M17.6836 24.3158C17.6836 22.2623 17.6836 21.2356 17.8112 20.3754C18.5732 15.2386 22.6064 11.2054 27.7432 10.4434C28.6034 10.3158 29.6301 10.3158 31.6836 10.3158C33.737 10.3158 34.7638 10.3158 35.624 10.4434C40.7607 11.2054 44.794 15.2386 45.556 20.3754C45.6836 21.2356 45.6836 22.2623 45.6836 24.3158C45.6836 26.3692 45.6836 27.396 45.556 28.2562C44.794 33.3929 40.7607 37.4262 35.624 38.1882C34.7638 38.3158 33.737 38.3158 31.6836 38.3158C29.6301 38.3158 28.6034 38.3158 27.7432 38.1882C22.6064 37.4262 18.5732 33.3929 17.8112 28.2562C17.6836 27.396 17.6836 26.3692 17.6836 24.3158Z" fill="black" fill-opacity="0.52"/>
<path d="M31.6836 10.684C33.7502 10.684 34.7437 10.6854 35.5703 10.808C40.5462 11.5463 44.4531 15.4532 45.1914 20.4291C45.314 21.2556 45.3154 22.2492 45.3154 24.3158C45.3154 26.3824 45.314 27.3759 45.1914 28.2025C44.4531 33.1784 40.5462 37.0853 35.5703 37.8236C34.7437 37.9462 33.7502 37.9476 31.6836 37.9476C29.617 37.9476 28.6234 37.9462 27.7969 37.8236C22.821 37.0853 18.9141 33.1784 18.1758 28.2025C18.0532 27.3759 18.0518 26.3824 18.0518 24.3158C18.0518 22.2492 18.0532 21.2556 18.1758 20.4291C18.9141 15.4532 22.821 11.5463 27.7969 10.808C28.6234 10.6854 29.617 10.684 31.6836 10.684Z" stroke="url(#paint0_linear_5003_3324)" stroke-width="0.736842"/>
<path d="M35.9336 31.8158H28.4336C28.1261 31.8158 27.8711 31.5608 27.8711 31.2533C27.8711 30.9458 28.1261 30.6908 28.4336 30.6908H35.9336C36.2411 30.6908 36.4961 30.9458 36.4961 31.2533C36.4961 31.5608 36.2411 31.8158 35.9336 31.8158Z" fill="#ECBE59"/>
<path d="M38.4458 19.4558L35.4458 21.6008C35.0483 21.8858 34.4783 21.7133 34.3058 21.2558L32.8883 17.4758C32.6483 16.8233 31.7258 16.8233 31.4858 17.4758L30.0608 21.2483C29.8883 21.7133 29.3258 21.8858 28.9283 21.5933L25.9283 19.4483C25.3283 19.0283 24.5333 19.6208 24.7808 20.3183L27.9008 29.0558C28.0058 29.3558 28.2908 29.5508 28.6058 29.5508H35.7533C36.0683 29.5508 36.3533 29.3483 36.4583 29.0558L39.5783 20.3183C39.8333 19.6208 39.0383 19.0283 38.4458 19.4558ZM34.0583 26.3783H30.3083C30.0008 26.3783 29.7458 26.1233 29.7458 25.8158C29.7458 25.5083 30.0008 25.2533 30.3083 25.2533H34.0583C34.3658 25.2533 34.6208 25.5083 34.6208 25.8158C34.6208 26.1233 34.3658 26.3783 34.0583 26.3783Z" fill="#ECBE59"/>
<defs>
<linearGradient id="paint0_linear_5003_3324" x1="19.9693" y1="10.3158" x2="61.0646" y2="37.5129" gradientUnits="userSpaceOnUse">
<stop offset="0.263331" stop-color="white"/>
<stop offset="0.507086" stop-color="#DBE6F2" stop-opacity="0"/>
<stop offset="1" stop-color="#8F9FAE"/>
</linearGradient>
</defs>
</svg>
