<svg width="20" height="20" viewBox="0 0 20 20" fill="none" xmlns="http://www.w3.org/2000/svg">
<path d="M14.6872 13.7499H5.31217C4.30992 13.7435 3.3454 13.3669 2.60403 12.6924C1.86267 12.0179 1.3968 11.0932 1.296 10.096C1.19519 9.09884 1.46657 8.09959 2.05795 7.29039C2.64933 6.48119 3.51897 5.91916 4.49967 5.71235C4.76948 4.45393 5.46269 3.32609 6.46361 2.51702C7.46454 1.70796 8.71264 1.2666 9.99967 1.2666C11.2867 1.2666 12.5348 1.70796 13.5357 2.51702C14.5366 3.32609 15.2298 4.45393 15.4997 5.71235C16.4804 5.91916 17.35 6.48119 17.9414 7.29039C18.5328 8.09959 18.8041 9.09884 18.7033 10.096C18.6025 11.0932 18.1367 12.0179 17.3953 12.6924C16.6539 13.3669 15.6894 13.7435 14.6872 13.7499ZM9.99967 2.49985C8.93318 2.50092 7.90381 2.8915 7.10506 3.59817C6.30631 4.30485 5.79319 5.27895 5.66217 6.33735L5.62467 6.87485H5.08717C4.34125 6.90469 3.63773 7.22962 3.13138 7.77817C2.62503 8.32671 2.35733 9.05393 2.38717 9.79985C2.417 10.5458 2.74194 11.2493 3.29048 11.7556C3.83902 12.262 4.56625 12.5297 5.31217 12.4999H14.6872C15.4331 12.5297 16.1603 12.262 16.7089 11.7556C17.2574 11.2493 17.5823 10.5458 17.6122 9.79985C17.642 9.05393 17.3743 8.32671 16.868 7.77817C16.3616 7.22962 15.6581 6.90469 14.9122 6.87485H14.3747L14.3122 6.36235C14.1873 5.30368 13.6802 4.327 12.8862 3.61579C12.0921 2.90457 11.0657 2.50775 9.99967 2.49985ZM8.74967 18.7499C8.65162 18.751 8.55487 18.7274 8.46842 18.6811C8.32121 18.6062 8.20966 18.476 8.15813 18.3191C8.1066 18.1622 8.11928 17.9912 8.19342 17.8436L9.44342 15.3436C9.47646 15.2643 9.5255 15.1926 9.5875 15.1331C9.64949 15.0735 9.72309 15.0274 9.80371 14.9976C9.88432 14.9678 9.97022 14.955 10.056 14.9599C10.1418 14.9648 10.2257 14.9873 10.3024 15.0261C10.3791 15.0649 10.447 15.1191 10.5018 15.1853C10.5566 15.2515 10.5972 15.3283 10.621 15.4109C10.6448 15.4934 10.6513 15.58 10.6401 15.6653C10.6289 15.7505 10.6002 15.8325 10.5559 15.9061L9.30592 18.4061C9.25398 18.5092 9.17452 18.5959 9.07633 18.6565C8.97815 18.7172 8.86508 18.7495 8.74967 18.7499ZM12.4997 18.7499C12.4016 18.751 12.3049 18.7274 12.2184 18.6811C12.0712 18.6062 11.9597 18.476 11.9081 18.3191C11.8566 18.1622 11.8693 17.9912 11.9434 17.8436L13.1934 15.3436C13.2265 15.2643 13.2755 15.1926 13.3375 15.1331C13.3995 15.0735 13.4731 15.0274 13.5537 14.9976C13.6343 14.9678 13.7202 14.955 13.806 14.9599C13.8918 14.9648 13.9757 14.9873 14.0524 15.0261C14.1291 15.0649 14.197 15.1191 14.2518 15.1853C14.3066 15.2515 14.3472 15.3283 14.371 15.4109C14.3948 15.4934 14.4013 15.58 14.3901 15.6653C14.3789 15.7505 14.3502 15.8325 14.3059 15.9061L13.0559 18.4061C13.004 18.5092 12.9245 18.5959 12.8263 18.6565C12.7282 18.7172 12.6151 18.7495 12.4997 18.7499ZM4.99967 18.7499C4.90162 18.751 4.80487 18.7274 4.71842 18.6811C4.57121 18.6062 4.45966 18.476 4.40813 18.3191C4.3566 18.1622 4.36929 17.9912 4.44342 17.8436L5.69342 15.3436C5.72646 15.2643 5.77551 15.1926 5.8375 15.1331C5.89949 15.0735 5.97309 15.0274 6.05371 14.9976C6.13432 14.9678 6.22022 14.955 6.30602 14.9599C6.39183 14.9648 6.4757 14.9873 6.5524 15.0261C6.6291 15.0649 6.69698 15.1191 6.75179 15.1853C6.8066 15.2515 6.84717 15.3283 6.87097 15.4109C6.89476 15.4934 6.90126 15.58 6.89007 15.6653C6.87888 15.7505 6.85023 15.8325 6.80592 15.9061L5.55592 18.4061C5.50398 18.5092 5.42452 18.5959 5.32633 18.6565C5.22815 18.7172 5.11508 18.7495 4.99967 18.7499Z" fill="#798499"/>
</svg>
