<svg width="20" height="20" viewBox="0 0 20 20" fill="none" xmlns="http://www.w3.org/2000/svg">
<path d="M16.9378 6.91667V5.375C16.9378 4.76169 16.6942 4.17349 16.2605 3.73982C15.8268 3.30614 15.2386 3.0625 14.6253 3.0625H12.3128M12.3128 16.9375H14.6253C15.2386 16.9375 15.8268 16.6939 16.2605 16.2602C16.6942 15.8265 16.9378 15.2383 16.9378 14.625V13.0833M3.06283 13.0833V14.625C3.06283 15.2383 3.30646 15.8265 3.74014 16.2602C4.17382 16.6939 4.76201 16.9375 5.37533 16.9375H7.68783M7.68783 3.0625H5.37533C4.76201 3.0625 4.17382 3.30614 3.74014 3.73982C3.30646 4.17349 3.06283 4.76169 3.06283 5.375V6.91667M2.29199 10H17.7087" stroke="#3A3559" stroke-width="1.5" stroke-linecap="round" stroke-linejoin="round"/>
</svg>
