<svg width="24" height="24" viewBox="0 0 24 24" fill="none" xmlns="http://www.w3.org/2000/svg">
<path fill-rule="evenodd" clip-rule="evenodd" d="M17.0763 2C17.0449 2 17.0166 2.02017 17.0077 2.05084L16.5082 3.63893C16.4655 3.77611 16.3573 3.88425 16.2202 3.92702L14.6321 4.42652C14.5643 4.4475 14.5643 4.54353 14.6321 4.56451L16.2202 5.06402C16.3573 5.10759 16.4655 5.21492 16.5082 5.35291L17.0077 6.941C17.0457 7.06205 17.1078 7.06205 17.1458 6.941C17.312 6.41164 17.4782 5.88227 17.6453 5.35291C17.6832 5.23187 17.8123 5.10194 17.9341 5.06402L19.5222 4.56451C19.59 4.54353 19.59 4.4475 19.5222 4.42652L17.9341 3.92702C17.7961 3.88425 17.6888 3.77611 17.6453 3.63893L17.1458 2.05084C17.1361 2.02017 17.1078 2 17.0763 2ZM7.29117 4.87519C7.24921 4.87519 7.2129 4.90263 7.19999 4.94217L6.54151 7.03622C6.48421 7.21779 6.34219 7.35981 6.16063 7.41711L4.06657 8.07558C3.97781 8.10383 3.97781 8.22971 4.06657 8.25715L6.16063 8.91563C6.34219 8.97292 6.48421 9.11414 6.54151 9.2957L7.19999 11.3898C7.25002 11.5495 7.33152 11.5495 7.38236 11.3898C7.60185 10.6917 7.82135 9.99372 8.04084 9.2957C8.09087 9.13593 8.26114 8.96566 8.42092 8.91563L10.515 8.25715C10.6045 8.22971 10.6045 8.10302 10.515 8.07558L8.42092 7.41711C8.23935 7.35981 8.09733 7.21779 8.04084 7.03622L7.38236 4.94217C7.36945 4.90263 7.33314 4.87519 7.29117 4.87519ZM12.7519 8.96244C12.6728 8.96244 12.6026 9.01408 12.5792 9.08912L11.33 13.0626C11.2219 13.4072 10.9524 13.6767 10.6078 13.7848L6.63512 15.034C6.46566 15.0872 6.46566 15.3261 6.63512 15.3802L10.6078 16.6293C10.9524 16.7375 11.2219 17.007 11.33 17.3508L12.5792 21.3242C12.6744 21.6276 12.8293 21.6276 12.9246 21.3242C13.3409 20 13.7573 18.6758 14.1737 17.3508C14.2689 17.0473 14.5925 16.7238 14.8959 16.6293L18.8694 15.3802C19.0389 15.3269 19.0389 15.0881 18.8694 15.034L14.8959 13.7848C14.5522 13.6767 14.2819 13.4072 14.1737 13.0626L12.9246 9.08912C12.9012 9.01408 12.8309 8.96244 12.7519 8.96244Z" fill="#3A3559"/>
</svg>
