<svg width="20" height="20" viewBox="0 0 20 20" fill="none" xmlns="http://www.w3.org/2000/svg">
<path d="M10.0517 18.3338H9.94835C9.31502 18.3338 8.99919 18.3338 8.72419 18.2088C8.44919 18.0846 8.25169 17.8521 7.85669 17.3871L5.87169 15.0513C5.48419 14.5955 5.29085 14.368 5.19002 14.0971C5.09002 13.8271 5.09002 13.5346 5.09002 12.9505V8.56463C5.09002 7.99379 5.09002 7.7088 4.96669 7.45796C4.84419 7.20713 4.61419 7.02129 4.15419 6.64963L3.98085 6.51046C2.99585 5.71546 2.50335 5.31713 2.50002 4.74213C2.49669 4.16713 2.93335 3.80546 3.80669 3.08379C3.94002 2.97268 4.07002 2.87157 4.19669 2.78046C4.67419 2.43879 5.36502 2.06129 5.85169 1.80879C6.0314 1.71787 6.22958 1.66939 6.43097 1.66708C6.63236 1.66477 6.8316 1.70869 7.01335 1.79546L7.23335 1.89879C7.29224 1.92657 7.33974 1.96602 7.37585 2.01713C8.62419 3.78046 11.3759 3.78046 12.6242 2.01713C12.6608 1.96614 12.7098 1.92539 12.7667 1.89879L12.9867 1.79546C13.1684 1.70869 13.3677 1.66477 13.5691 1.66708C13.7705 1.66939 13.9686 1.71787 14.1484 1.80879C14.635 2.06129 15.3259 2.43879 15.8034 2.78046C15.9311 2.87268 16.0611 2.97352 16.1934 3.08296C17.0667 3.80546 17.5034 4.16713 17.5 4.74213C17.4967 5.31713 17.0034 5.71546 16.0192 6.51046L15.8459 6.64963C15.3859 7.02129 15.1559 7.20713 15.0334 7.45796C14.9109 7.7088 14.9109 7.99379 14.9109 8.56463V12.9505C14.9109 13.5346 14.9109 13.8271 14.81 14.0971C14.71 14.3671 14.5159 14.5955 14.1284 15.0513L12.1434 17.3871C11.7484 17.8521 11.5509 18.0846 11.2759 18.2096C11.0009 18.3338 10.6842 18.3338 10.0517 18.3338Z" fill="#3A3559"/>
</svg>
