<svg width="20" height="20" viewBox="0 0 20 20" fill="none" xmlns="http://www.w3.org/2000/svg">
<path d="M12.5003 2.5C12.9208 2.49987 13.3258 2.65867 13.6341 2.94458C13.9424 3.23049 14.1313 3.62237 14.1628 4.04167L14.167 4.16667C14.167 4.37078 14.242 4.56778 14.3776 4.72031C14.5132 4.87284 14.7001 4.97029 14.9028 4.99417L15.0003 5H15.8337C16.4713 4.99996 17.0849 5.2436 17.5489 5.68107C18.0128 6.11854 18.2921 6.71676 18.3295 7.35333L18.3337 7.5V15C18.3337 15.6377 18.0901 16.2513 17.6526 16.7152C17.2151 17.1792 16.6169 17.4584 15.9803 17.4958L15.8337 17.5H4.16699C3.52932 17.5 2.91573 17.2564 2.45177 16.8189C1.98782 16.3815 1.70857 15.7832 1.67116 15.1467L1.66699 15V7.5C1.66696 6.86232 1.9106 6.24874 2.34806 5.78478C2.78553 5.32083 3.38375 5.04158 4.02033 5.00417L4.16699 5H5.00033C5.22134 5 5.4333 4.9122 5.58958 4.75592C5.74586 4.59964 5.83366 4.38768 5.83366 4.16667C5.83353 3.74619 5.99233 3.34119 6.27824 3.03288C6.56415 2.72456 6.95603 2.5357 7.37533 2.50417L7.50033 2.5H12.5003ZM10.0003 8.33333C9.38082 8.33328 8.78336 8.56325 8.32377 8.97866C7.86418 9.39406 7.57519 9.96531 7.51283 10.5817L7.50366 10.7083L7.50033 10.8333L7.50366 10.9583C7.52812 11.4469 7.69535 11.9175 7.98464 12.3119C8.27392 12.7063 8.67256 13.0072 9.13117 13.1773C9.58979 13.3474 10.0882 13.3792 10.5647 13.2688C11.0413 13.1584 11.4749 12.9107 11.812 12.5563C12.1491 12.2018 12.3748 11.7563 12.4612 11.2749C12.5476 10.7934 12.4909 10.2972 12.298 9.84767C12.1052 9.39816 11.7847 9.01509 11.3763 8.74592C10.9679 8.47674 10.4895 8.33329 10.0003 8.33333Z" fill="#3A3559"/>
</svg>
