<svg width="20" height="20" viewBox="0 0 20 20" fill="none" xmlns="http://www.w3.org/2000/svg">
<g clip-path="url(#clip0_4364_2506)">
<path d="M0.625 5.625V2.70833C0.624984 2.44232 0.709829 2.18325 0.867195 1.96878C1.02456 1.75431 1.24624 1.59564 1.5 1.51583C2.65667 1.14667 5.15417 0.625 10 0.625C14.8458 0.625 17.3433 1.14667 18.5 1.51583C18.7528 1.59632 18.9735 1.75518 19.1301 1.96942C19.2866 2.18366 19.371 2.44215 19.3708 2.7075V5.62417" stroke="#3A3559" stroke-width="1.5" stroke-linecap="round" stroke-linejoin="round"/>
<path d="M4.375 5.625C4.375 5.37877 4.3265 5.13495 4.23227 4.90747C4.13805 4.67998 3.99993 4.47328 3.82582 4.29917C3.65172 4.12507 3.44502 3.98695 3.21753 3.89273C2.99005 3.7985 2.74623 3.75 2.5 3.75C2.25377 3.75 2.00995 3.7985 1.78247 3.89273C1.55498 3.98695 1.34828 4.12507 1.17417 4.29917C1.00006 4.47328 0.861953 4.67998 0.767726 4.90747C0.673498 5.13495 0.625 5.37877 0.625 5.625V6.875C0.625 7.20652 0.756696 7.52446 0.991117 7.75888C1.22554 7.9933 1.54348 8.125 1.875 8.125H3.125C3.45652 8.125 3.77446 7.9933 4.00888 7.75888C4.2433 7.52446 4.375 7.20652 4.375 6.875M4.375 5.625V6.875M4.375 5.625C4.375 5.12772 4.57254 4.65081 4.92417 4.29917C5.27581 3.94754 5.75272 3.75 6.25 3.75C6.74728 3.75 7.22419 3.94754 7.57582 4.29917C7.92746 4.65081 8.125 5.12772 8.125 5.625M4.375 6.875C4.375 7.20652 4.5067 7.52446 4.74112 7.75888C4.97554 7.9933 5.29348 8.125 5.625 8.125H6.875C7.20652 8.125 7.52446 7.9933 7.75888 7.75888C7.9933 7.52446 8.125 7.20652 8.125 6.875M8.125 5.625V6.875M8.125 5.625C8.125 5.12772 8.32254 4.65081 8.67417 4.29917C9.02581 3.94754 9.50272 3.75 10 3.75C10.4973 3.75 10.9742 3.94754 11.3258 4.29917C11.6775 4.65081 11.875 5.12772 11.875 5.625M8.125 6.875C8.125 7.20652 8.2567 7.52446 8.49112 7.75888C8.72554 7.9933 9.04348 8.125 9.375 8.125H10.625C10.9565 8.125 11.2745 7.9933 11.5089 7.75888C11.7433 7.52446 11.875 7.20652 11.875 6.875M11.875 5.625V6.875M11.875 5.625C11.875 5.12772 12.0725 4.65081 12.4242 4.29917C12.7758 3.94754 13.2527 3.75 13.75 3.75C14.2473 3.75 14.7242 3.94754 15.0758 4.29917C15.4275 4.65081 15.625 5.12772 15.625 5.625M11.875 6.875C11.875 7.20652 12.0067 7.52446 12.2411 7.75888C12.4755 7.9933 12.7935 8.125 13.125 8.125H14.375C14.7065 8.125 15.0245 7.9933 15.2589 7.75888C15.4933 7.52446 15.625 7.20652 15.625 6.875M15.625 5.625V6.875M15.625 5.625C15.625 5.12772 15.8225 4.65081 16.1742 4.29917C16.5258 3.94754 17.0027 3.75 17.5 3.75C17.9973 3.75 18.4742 3.94754 18.8258 4.29917C19.1775 4.65081 19.375 5.12772 19.375 5.625V6.875C19.375 7.20652 19.2433 7.52446 19.0089 7.75888C18.7745 7.9933 18.4565 8.125 18.125 8.125H16.875C16.5435 8.125 16.2255 7.9933 15.9911 7.75888C15.7567 7.52446 15.625 7.20652 15.625 6.875M0.625 14.375V17.2917C0.624984 17.5577 0.709829 17.8168 0.867195 18.0312C1.02456 18.2457 1.24624 18.4044 1.5 18.4842C2.65667 18.8533 5.15417 19.375 10 19.375C14.8458 19.375 17.3433 18.8533 18.5 18.4842C18.7528 18.4037 18.9735 18.2448 19.1301 18.0306C19.2866 17.8163 19.371 17.5578 19.3708 17.2925V14.3758" stroke="#3A3559" stroke-width="1.5" stroke-linecap="round" stroke-linejoin="round"/>
<path d="M4.375 14.375C4.375 14.8723 4.17746 15.3492 3.82582 15.7008C3.47419 16.0525 2.99728 16.25 2.5 16.25C2.00272 16.25 1.52581 16.0525 1.17417 15.7008C0.822544 15.3492 0.625 14.8723 0.625 14.375V13.125C0.625 12.7935 0.756696 12.4755 0.991117 12.2411C1.22554 12.0067 1.54348 11.875 1.875 11.875H3.125C3.45652 11.875 3.77446 12.0067 4.00888 12.2411C4.2433 12.4755 4.375 12.7935 4.375 13.125M4.375 14.375V13.125M4.375 14.375C4.375 14.8723 4.57254 15.3492 4.92417 15.7008C5.27581 16.0525 5.75272 16.25 6.25 16.25C6.74728 16.25 7.22419 16.0525 7.57582 15.7008C7.92746 15.3492 8.125 14.8723 8.125 14.375M4.375 13.125C4.375 12.7935 4.5067 12.4755 4.74112 12.2411C4.97554 12.0067 5.29348 11.875 5.625 11.875H6.875C7.20652 11.875 7.52446 12.0067 7.75888 12.2411C7.9933 12.4755 8.125 12.7935 8.125 13.125M8.125 14.375V13.125M8.125 14.375C8.125 14.8723 8.32254 15.3492 8.67417 15.7008C9.02581 16.0525 9.50272 16.25 10 16.25C10.4973 16.25 10.9742 16.0525 11.3258 15.7008C11.6775 15.3492 11.875 14.8723 11.875 14.375M8.125 13.125C8.125 12.7935 8.2567 12.4755 8.49112 12.2411C8.72554 12.0067 9.04348 11.875 9.375 11.875H10.625C10.9565 11.875 11.2745 12.0067 11.5089 12.2411C11.7433 12.4755 11.875 12.7935 11.875 13.125M11.875 14.375V13.125M11.875 14.375C11.875 14.8723 12.0725 15.3492 12.4242 15.7008C12.7758 16.0525 13.2527 16.25 13.75 16.25C14.2473 16.25 14.7242 16.0525 15.0758 15.7008C15.4275 15.3492 15.625 14.8723 15.625 14.375M11.875 13.125C11.875 12.7935 12.0067 12.4755 12.2411 12.2411C12.4755 12.0067 12.7935 11.875 13.125 11.875H14.375C14.7065 11.875 15.0245 12.0067 15.2589 12.2411C15.4933 12.4755 15.625 12.7935 15.625 13.125M15.625 14.375V13.125M15.625 14.375C15.625 14.8723 15.8225 15.3492 16.1742 15.7008C16.5258 16.0525 17.0027 16.25 17.5 16.25C17.9973 16.25 18.4742 16.0525 18.8258 15.7008C19.1775 15.3492 19.375 14.8723 19.375 14.375V13.125C19.375 12.7935 19.2433 12.4755 19.0089 12.2411C18.7745 12.0067 18.4565 11.875 18.125 11.875H16.875C16.5435 11.875 16.2255 12.0067 15.9911 12.2411C15.7567 12.4755 15.625 12.7935 15.625 13.125" stroke="#3A3559" stroke-width="1.5" stroke-linecap="round" stroke-linejoin="round"/>
</g>
<defs>
<clipPath id="clip0_4364_2506">
<rect width="20" height="20" fill="white"/>
</clipPath>
</defs>
</svg>
