<svg width="20" height="20" viewBox="0 0 20 20" fill="none" xmlns="http://www.w3.org/2000/svg">
<path d="M3.4387 16.6668C3.3087 16.6668 3.1937 16.636 3.0937 16.5743C2.9937 16.5127 2.91592 16.4313 2.86037 16.3302C2.80037 16.2307 2.76704 16.1232 2.76037 16.0077C2.75481 15.8916 2.78759 15.7746 2.8587 15.6568L9.41704 4.3435C9.48815 4.22572 9.5737 4.14017 9.6737 4.08684C9.7737 4.0335 9.88259 4.00684 10.0004 4.00684C10.1181 4.00684 10.2268 4.0335 10.3262 4.08684C10.4256 4.14017 10.5112 4.22572 10.5829 4.3435L17.142 15.6568C17.2131 15.7746 17.2456 15.8913 17.2395 16.0068C17.234 16.1235 17.2006 16.2313 17.1395 16.3302C17.084 16.4313 17.0062 16.5127 16.9062 16.5743C16.8062 16.636 16.6915 16.6668 16.562 16.6668H3.4387ZM10.0004 14.6802C10.1459 14.6802 10.2679 14.631 10.3662 14.5327C10.4645 14.4343 10.5134 14.3124 10.5129 14.1668C10.5123 14.0213 10.4631 13.8996 10.3654 13.8018C10.2676 13.7041 10.1459 13.6546 10.0004 13.6535C9.85481 13.6524 9.73315 13.7016 9.63537 13.801C9.53759 13.9004 9.48842 14.0224 9.48787 14.1668C9.48731 14.3113 9.53648 14.4332 9.63537 14.5327C9.73426 14.6321 9.85592 14.6813 10.0004 14.6802ZM10.0004 12.821C10.1193 12.821 10.2184 12.781 10.2979 12.701C10.3773 12.621 10.417 12.5221 10.417 12.4043V9.071C10.417 8.95267 10.377 8.8535 10.297 8.7735C10.217 8.6935 10.1179 8.65378 9.99954 8.65434C9.8812 8.65489 9.78231 8.69461 9.70287 8.7735C9.62342 8.85239 9.5837 8.95156 9.5837 9.071V12.4043C9.5837 12.5221 9.6237 12.621 9.7037 12.701C9.7837 12.781 9.88287 12.821 10.0012 12.821" fill="#E70000"/>
</svg>
