<svg width="20" height="20" viewBox="0 0 20 20" fill="none" xmlns="http://www.w3.org/2000/svg">
<path d="M13.825 6.17499L5.25838 14.7417C4.85838 15.1417 4.17504 15.05 3.93338 14.5417C3.50004 13.65 3.25004 12.6417 3.25004 11.5833C3.23338 6.98332 7.90004 3.04999 9.48338 1.84166C9.79171 1.60832 10.2084 1.60832 10.5084 1.84166C11.2334 2.39166 12.5917 3.53332 13.8667 5.03332C14.15 5.36666 14.1334 5.86666 13.825 6.17499Z" fill="#538AF0"/>
<path d="M16.7503 11.5917C16.7503 15.3083 13.7253 18.3333 10.0003 18.3333C8.50863 18.3333 7.11696 17.85 5.99196 17.0167C5.58363 16.7167 5.5503 16.1167 5.90863 15.7583L14.3003 7.36667C14.692 6.97501 15.3503 7.05834 15.617 7.54167C16.3003 8.80001 16.7586 10.1667 16.7503 11.5917Z" fill="#538AF0"/>
</svg>
