<svg width="20" height="20" viewBox="0 0 20 20" fill="none" xmlns="http://www.w3.org/2000/svg">
<path d="M12.0836 4.16634C12.0836 4.71888 11.8641 5.24878 11.4734 5.63948C11.0827 6.03018 10.5528 6.24967 10.0003 6.24967C9.44776 6.24967 8.91786 6.03018 8.52716 5.63948C8.13646 5.24878 7.91696 4.71888 7.91696 4.16634C7.91696 3.61381 8.13646 3.0839 8.52716 2.6932C8.91786 2.3025 9.44776 2.08301 10.0003 2.08301C10.5528 2.08301 11.0827 2.3025 11.4734 2.6932C11.8641 3.0839 12.0836 3.61381 12.0836 4.16634ZM12.917 17.9163C12.917 18.0268 12.8731 18.1328 12.7949 18.211C12.7168 18.2891 12.6108 18.333 12.5003 18.333H5.35696C5.09829 18.333 4.84667 18.2487 4.64019 18.0929C4.43371 17.9371 4.28363 17.7182 4.21266 17.4695C4.14169 17.2208 4.1537 16.9557 4.24688 16.7144C4.34006 16.473 4.50932 16.2687 4.72905 16.1322L6.93071 14.7647C7.11128 14.6525 7.26025 14.4962 7.36356 14.3104C7.46687 14.1246 7.5211 13.9156 7.52113 13.703V13.333H8.5103C8.95229 13.3329 9.37614 13.1573 9.68863 12.8447L10.0003 12.5334L10.3115 12.8447C10.4664 12.9995 10.6502 13.1224 10.8525 13.2062C11.0549 13.29 11.2717 13.3331 11.4907 13.333H12.5003V13.7047C12.5004 13.9166 12.5543 14.125 12.6571 14.3104C12.7599 14.4958 12.9081 14.6519 13.0878 14.7643L15.2736 16.1305C15.4932 16.2676 15.6622 16.4725 15.755 16.7141C15.8478 16.9557 15.8594 17.221 15.788 17.4699C15.7167 17.7187 15.5662 17.9375 15.3594 18.0932C15.1527 18.249 14.9008 18.3331 14.642 18.333H13.6795C13.7253 18.2026 13.7503 18.0622 13.7503 17.9163V17.8122C13.7502 17.5094 13.6403 17.217 13.4409 16.9891C13.2415 16.7613 12.9662 16.6136 12.6661 16.5734L7.15988 15.8368C7.05123 15.8238 6.94187 15.8542 6.8554 15.9212C6.76894 15.9883 6.71232 16.0867 6.69776 16.1951C6.68321 16.3035 6.71189 16.4133 6.77762 16.5008C6.84334 16.5883 6.94084 16.6464 7.04905 16.6626L12.5557 17.3993C12.6557 17.4127 12.7475 17.4619 12.8139 17.5379C12.8803 17.6138 12.917 17.7113 12.917 17.8122V17.9163ZM10.9011 12.2555L10.417 11.7713V10.2122C10.4792 10.248 10.5367 10.2922 10.5895 10.3447L11.3724 11.128C11.4506 11.206 11.5565 11.2498 11.667 11.2497H12.917C12.988 11.2496 13.0578 11.2315 13.1198 11.1969C13.1818 11.1623 13.2339 11.1124 13.2712 11.052C13.3085 10.9916 13.3298 10.9227 13.333 10.8518C13.3362 10.7808 13.3212 10.7103 13.2895 10.6468L12.8728 9.81342C12.8494 9.76277 12.8161 9.71733 12.7748 9.6798C12.7335 9.64227 12.6851 9.61342 12.6324 9.59496C12.5797 9.57649 12.5239 9.5688 12.4682 9.57232C12.4125 9.57585 12.3581 9.59052 12.3082 9.61548C12.2583 9.64043 12.2139 9.67516 12.1777 9.7176C12.1414 9.76003 12.1141 9.80932 12.0973 9.86252C12.0804 9.91572 12.0745 9.97177 12.0797 10.0273C12.085 10.0829 12.1013 10.1368 12.1278 10.1859L12.2428 10.4163H11.8395L11.1786 9.75551C10.8661 9.44306 10.4422 9.26753 10.0003 9.26753C9.55836 9.26753 9.13451 9.44306 8.82196 9.75551L8.16113 10.4163H7.7578L7.8728 10.1859C7.89928 10.1368 7.91563 10.0829 7.92088 10.0273C7.92612 9.97177 7.92015 9.91572 7.90333 9.86252C7.8865 9.80932 7.85916 9.76003 7.82293 9.7176C7.78669 9.67516 7.7423 9.64043 7.69239 9.61548C7.64248 9.59052 7.58807 9.57585 7.53238 9.57232C7.47669 9.5688 7.42086 9.57649 7.3682 9.59496C7.31554 9.61342 7.26713 9.64227 7.22583 9.6798C7.18453 9.71733 7.1512 9.76277 7.1278 9.81342L6.71113 10.6468C6.67939 10.7103 6.66441 10.7808 6.66761 10.8518C6.6708 10.9227 6.69207 10.9916 6.72938 11.052C6.7667 11.1124 6.81883 11.1623 6.88083 11.1969C6.94282 11.2315 7.01263 11.2496 7.08363 11.2497H8.33363C8.44413 11.2497 8.55009 11.2057 8.62821 11.1276L9.41113 10.3447C9.46419 10.2922 9.52169 10.248 9.58363 10.2122V11.7713L9.09946 12.2555C8.94322 12.4118 8.73129 12.4996 8.5103 12.4997H5.99446C5.85895 12.4997 5.72549 12.4666 5.60563 12.4034C5.48577 12.3402 5.38314 12.2487 5.30664 12.1368C5.23013 12.025 5.18205 11.8962 5.16657 11.7615C5.15109 11.6269 5.16867 11.4906 5.2178 11.3643L6.46946 8.14551C6.5912 7.83253 6.80464 7.56363 7.08181 7.37404C7.35899 7.18444 7.68698 7.083 8.0228 7.08301H11.9778C12.3136 7.083 12.6416 7.18444 12.9188 7.37404C13.196 7.56363 13.4094 7.83253 13.5311 8.14551L14.7832 11.3643C14.8324 11.4906 14.8499 11.6271 14.8344 11.7617C14.8189 11.8964 14.7707 12.0253 14.6941 12.1372C14.6175 12.249 14.5148 12.3405 14.3948 12.4037C14.2749 12.4669 14.1413 12.4998 14.0057 12.4997H11.4899C11.2689 12.4996 11.057 12.4118 10.9007 12.2555" fill="#3A3559"/>
</svg>
